<svg width="1023" height="179" viewBox="0 0 1023 179" fill="none" xmlns="http://www.w3.org/2000/svg">
<g clip-path="url(#clip0_197_838)">
<path d="M848.668 65.0553V38.6161C848.668 35.3373 847.813 35.0459 845.351 35.0459V33.9985H856.884V35.0459C854.23 35.0459 853.23 35.3282 853.23 38.6161V67.569H860.155C865.754 67.569 867.372 66.6218 867.608 59.436H868.844V69.6546H845.36V68.6073C847.832 68.6073 848.677 68.3705 848.677 65.0371L848.668 65.0553Z" fill="#FCF1E3"/>
<path d="M880.504 69.6729H871.343V68.7257C872.815 68.7257 873.624 68.4434 873.624 65.9206V50.4651C873.624 47.0862 873.579 46.4669 871.107 46.8949V45.9933L877.987 42.5233V65.9206C877.987 68.4434 878.696 68.7257 880.504 68.7257V69.6729ZM875.615 39.5269C873.951 39.5269 872.77 38.2883 872.77 36.6762C872.77 35.0642 873.961 33.78 875.615 33.78C877.269 33.78 878.505 35.0642 878.505 36.6762C878.505 38.2883 877.314 39.5269 875.615 39.5269Z" fill="#FCF1E3"/>
<path d="M894.173 44.8547C890.665 44.8547 887.011 48.2336 887.011 55.0734C887.011 62.3503 890.574 66.5762 895.409 66.5762C898.59 66.5762 901.198 64.2902 902.525 59.9641L903.616 60.3467C902.616 65.7201 899.153 70.0462 893.655 70.0462C886.775 70.0462 882.785 64.2902 882.785 57.3958C882.785 47.8875 889.147 42.7964 894.791 42.7964C900.435 42.7964 903.234 45.8383 903.234 49.2628C903.234 50.9294 902.334 51.8311 901.098 51.8311C899.535 51.8311 898.917 50.7382 898.581 49.2172C897.963 46.3665 896.727 44.8456 894.164 44.8456L894.173 44.8547Z" fill="#FCF1E3"/>
<path d="M916.657 70.0554C909.732 70.0554 905.697 64.2994 905.697 57.5052C905.697 47.9969 911.913 42.8147 917.275 42.8147C922.965 42.8147 926.809 46.9951 926.809 53.6527H909.923C909.878 54.0352 909.878 54.5088 909.878 54.9369C909.878 62.1683 913.531 66.5854 918.466 66.5854C921.783 66.5854 924.537 64.4452 925.918 60.1191L926.964 60.5471C925.964 65.7749 922.547 70.0554 916.667 70.0554H916.657ZM916.567 44.7091C914.004 44.7091 911.014 46.8949 910.159 51.7948H922.165C921.783 47.5142 920.029 44.7091 916.567 44.7091Z" fill="#FCF1E3"/>
<path d="M938.769 69.6728H929.281V68.7256C930.708 68.7256 931.508 68.4433 931.508 65.9205V50.465C931.508 47.0861 931.508 46.4668 929.036 46.8948V45.9932L935.916 42.5232V47.5141C937.67 45.1826 940.278 42.6598 944.032 42.6598C948.73 42.6598 951.148 45.893 951.148 50.5014V65.9023C951.148 68.4251 951.957 68.7074 953.52 68.7074V69.6546H943.932V68.7074C945.976 68.7074 946.776 68.4251 946.776 65.9023V51.2118C946.776 47.8329 945.258 45.9385 942.223 45.9385C939.187 45.9385 937.243 48.1243 935.916 50.0278V65.9114C935.916 68.4342 936.625 68.7165 938.76 68.7165V69.6637L938.769 69.6728Z" fill="#FCF1E3"/>
<path d="M968.052 64.3448C968.052 62.1134 966.961 60.8748 964.489 59.2081L960.409 56.4485C957.7 54.5906 956.046 52.3137 956.046 49.3629C956.046 45.1278 959.318 42.8054 963.208 42.8054C966.198 42.8054 967.761 44.2353 968.57 44.2353C969.233 44.2353 969.515 43.8528 969.615 43.2335H970.66V51.0295H969.57C968.806 46.6033 966.107 44.6543 962.926 44.6543C960.7 44.6543 959.554 46.0295 959.554 47.9785C959.554 49.9275 960.981 51.1206 963.063 52.5414L967.189 55.3921C969.988 57.3866 972.024 59.4358 972.024 63.0515C972.024 66.904 968.943 69.9915 964.199 69.9915C960.354 69.9915 958.746 68.3248 957.791 68.3248C957.028 68.3248 956.701 69.0898 956.655 69.6545H955.565V60.5743H956.701C957.173 65.6654 960.736 68.1335 964.199 68.1335C966.907 68.1335 968.043 66.3758 968.043 64.3266L968.052 64.3448Z" fill="#FCF1E3"/>
<path d="M985.32 70.0554C978.395 70.0554 974.359 64.2994 974.359 57.5052C974.359 47.9969 980.576 42.8147 985.938 42.8147C991.627 42.8147 995.471 46.9951 995.471 53.6527H978.585C978.54 54.0352 978.54 54.5088 978.54 54.9369C978.54 62.1683 982.193 66.5854 987.128 66.5854C990.446 66.5854 993.199 64.4452 994.581 60.1191L995.626 60.5471C994.626 65.7749 991.209 70.0554 985.329 70.0554H985.32ZM985.229 44.7091C982.666 44.7091 979.676 46.8949 978.822 51.7948H990.827C990.446 47.5142 988.692 44.7091 985.229 44.7091Z" fill="#FCF1E3"/>
<path d="M1007.9 70.0553C1002.45 70.0553 998.18 65.4924 998.18 57.4049C998.18 48.4157 1004.11 42.6688 1010.32 42.6688C1012.88 42.6688 1014.64 43.3792 1016.02 44.5268V39.0076C1016.02 36.1114 1016.02 35.5831 1013.41 35.9657V35.064L1020.38 31.7397V63.8803C1020.38 66.6855 1020.47 67.1591 1022.99 66.8312V67.7784L1016.02 70.201V65.4924C1014.17 67.8694 1011.32 70.0553 1007.9 70.0553ZM1002.54 54.3629C1002.54 61.1663 1004.72 66.8676 1009.7 66.8676C1012.5 66.8676 1014.36 65.3922 1016.01 62.9696V51.7035C1016.01 47.6598 1013.3 44.6178 1009.65 44.6178C1006 44.6178 1002.53 47.6142 1002.53 54.3629H1002.54Z" fill="#FCF1E3"/>
<path d="M848.668 88.817C848.668 85.4381 847.813 85.2468 845.351 85.2468V84.1995H856.456V85.2468C853.984 85.2468 853.23 85.4381 853.23 88.817V115.256C853.23 118.535 853.993 118.826 856.456 118.826V119.874H845.351V118.826C847.823 118.826 848.668 118.544 848.668 115.256V88.817Z" fill="#FCF1E3"/>
<path d="M868.408 119.865H858.919V118.918C860.346 118.918 861.146 118.635 861.146 116.112V100.657C861.146 97.278 861.146 96.6587 858.674 97.0867V96.1851L865.554 92.7151V97.706C867.308 95.3745 869.916 92.8517 873.67 92.8517C878.368 92.8517 880.786 96.0849 880.786 100.693V116.094C880.786 118.617 881.595 118.899 883.158 118.899V119.847H873.57V118.899C875.615 118.899 876.414 118.617 876.414 116.094V101.404C876.414 98.0248 874.897 96.1304 871.861 96.1304C868.826 96.1304 866.881 98.3162 865.554 100.22V116.103C865.554 118.626 866.263 118.908 868.399 118.908V119.856L868.408 119.865Z" fill="#FCF1E3"/>
<path d="M899.153 112.542C898.772 116.968 897.109 120.384 892.937 120.384C889.565 120.384 887.148 118.526 887.148 113.917V95.6568H884.685V94.8006C887.675 93.899 889.338 90.7113 890.283 86.3853H891.565V93.4254H898.299V95.6568H891.565V113.535C891.565 116.431 892.655 117.533 894.509 117.533C896.263 117.533 897.499 116.203 898.117 112.396L899.163 112.542H899.153Z" fill="#FCF1E3"/>
<path d="M911.777 120.247C904.852 120.247 900.817 114.491 900.817 107.697C900.817 98.1885 907.033 93.0063 912.395 93.0063C918.084 93.0063 921.929 97.1867 921.929 103.844H905.043C904.997 104.227 904.997 104.7 904.997 105.129C904.997 112.36 908.651 116.777 913.586 116.777C916.903 116.777 919.657 114.637 921.038 110.311L922.083 110.739C921.084 115.967 917.666 120.247 911.786 120.247H911.777ZM911.686 94.9007C909.123 94.9007 906.133 97.0865 905.279 101.986H917.285C916.903 97.7059 915.149 94.9007 911.686 94.9007Z" fill="#FCF1E3"/>
<path d="M934.262 119.865H924.392V118.918C925.819 118.918 926.618 118.635 926.618 116.112V100.657C926.618 97.278 926.618 96.6587 924.146 97.0867V96.1851L931.026 92.7151V98.7079C932.644 95.757 935.016 92.9063 937.761 92.9063C939.796 92.9063 940.896 94.145 940.896 95.8026C940.896 97.278 939.996 98.3709 938.569 98.3709C936.906 98.3709 936.479 97.0412 935.061 97.0412C933.78 97.0412 932.453 99.0357 931.026 101.65V116.103C931.026 118.626 931.735 118.908 934.253 118.908V119.856L934.262 119.865Z" fill="#FCF1E3"/>
<path d="M951.629 119.865H942.468V118.917C943.941 118.917 944.75 118.635 944.75 116.112V100.657C944.75 97.2778 944.704 96.6585 942.232 97.0866V96.1849L949.112 92.7149V116.112C949.112 118.635 949.821 118.917 951.629 118.917V119.865ZM946.74 89.7186C945.077 89.7186 943.895 88.4799 943.895 86.8679C943.895 85.2558 945.086 83.9717 946.74 83.9717C948.394 83.9717 949.63 85.2558 949.63 86.8679C949.63 88.4799 948.439 89.7186 946.74 89.7186Z" fill="#FCF1E3"/>
<path d="M964.726 120.247C958.273 120.247 952.956 114.546 952.956 106.649C952.956 98.7532 958.173 93.0063 964.726 93.0063C971.278 93.0063 976.495 98.7623 976.495 106.649C976.495 114.537 971.278 120.247 964.726 120.247ZM965.535 118.298C968.761 118.298 971.842 115.447 971.842 109.172C971.842 101.759 969.279 94.9554 964.017 94.9554C960.745 94.9554 957.564 97.6148 957.564 103.844C957.564 111.167 960.218 118.298 965.535 118.298Z" fill="#FCF1E3"/>
<path d="M988.782 119.865H978.913V118.918C980.339 118.918 981.139 118.635 981.139 116.112V100.657C981.139 97.278 981.139 96.6587 978.667 97.0867V96.1851L985.547 92.7151V98.7079C987.165 95.757 989.537 92.9063 992.281 92.9063C994.317 92.9063 995.417 94.145 995.417 95.8026C995.417 97.278 994.517 98.3709 993.09 98.3709C991.427 98.3709 991 97.0412 989.582 97.0412C988.301 97.0412 986.974 99.0357 985.547 101.65V116.103C985.547 118.626 986.256 118.908 988.773 118.908V119.856L988.782 119.865Z" fill="#FCF1E3"/>
<path d="M845.341 135.448V134.4H857.111C868.071 134.4 875.142 141.386 875.142 151.896C875.142 162.406 868.353 170.056 858.256 170.056H845.351V169.009C847.823 169.009 848.668 168.727 848.668 165.439V139C848.668 135.675 847.813 135.43 845.351 135.43L845.341 135.448ZM858.011 167.971C865.699 167.971 870.343 163.408 870.343 154.565C870.343 143.49 865.645 136.495 856.157 136.495H853.212V167.971H858.001H858.011Z" fill="#FCF1E3"/>
<path d="M888.329 170.439C881.404 170.439 877.369 164.683 877.369 157.889C877.369 148.38 883.585 143.198 888.947 143.198C894.637 143.198 898.481 147.379 898.481 154.036H881.595C881.549 154.419 881.549 154.892 881.549 155.32C881.549 162.552 885.203 166.969 890.138 166.969C893.455 166.969 896.209 164.829 897.59 160.503L898.635 160.931C897.636 166.158 894.218 170.439 888.338 170.439H888.329ZM888.238 145.093C885.675 145.093 882.685 147.278 881.831 152.178H893.837C893.455 147.898 891.701 145.093 888.238 145.093Z" fill="#FCF1E3"/>
<path d="M913.577 164.728C913.577 162.497 912.486 161.258 910.014 159.592L905.933 156.832C903.225 154.974 901.571 152.697 901.571 149.746C901.571 145.511 904.843 143.189 908.732 143.189C911.723 143.189 913.286 144.619 914.095 144.619C914.758 144.619 915.04 144.236 915.14 143.617H916.185V151.413H915.094C914.331 146.987 911.632 145.038 908.451 145.038C906.224 145.038 905.079 146.413 905.079 148.362C905.079 150.311 906.506 151.504 908.587 152.925L912.713 155.776C915.512 157.77 917.548 159.819 917.548 163.435C917.548 167.288 914.467 170.375 909.723 170.375C905.879 170.375 904.27 168.708 903.316 168.708C902.552 168.708 902.225 169.473 902.18 170.038H901.089V160.958H902.225C902.698 166.049 906.26 168.517 909.723 168.517C912.431 168.517 913.567 166.759 913.567 164.71L913.577 164.728Z" fill="#FCF1E3"/>
<path d="M929.19 170.056H920.029V169.109C921.502 169.109 922.31 168.827 922.31 166.304V150.849C922.31 147.47 922.265 146.85 919.793 147.278V146.377L926.673 142.907V166.304C926.673 168.827 927.382 169.109 929.19 169.109V170.056ZM924.301 139.91C922.638 139.91 921.456 138.672 921.456 137.06C921.456 135.448 922.647 134.164 924.301 134.164C925.955 134.164 927.191 135.448 927.191 137.06C927.191 138.672 926 139.91 924.301 139.91Z" fill="#FCF1E3"/>
<path d="M940.623 179C934.08 179 930.19 176.623 930.19 173.344C930.19 171.058 932.471 168.918 934.743 167.88C933.035 167.069 932.18 165.739 932.18 164.218C932.18 161.887 934.462 160.084 936.352 159.127C933.598 157.697 931.799 154.992 931.799 151.805C931.799 147.096 935.788 143.244 940.769 143.244C941.905 143.244 942.905 143.389 943.759 143.626H952.111V145.384H946.749C948.785 146.668 950.212 148.708 950.212 151.805C950.212 156.559 946.222 160.22 941.051 160.22C940.051 160.22 939.06 160.074 938.16 159.838C936.406 160.739 935.552 161.641 935.552 162.688C935.552 163.635 936.361 164.401 938.306 164.401H944.241C950.411 164.401 952.493 166.732 952.493 170.248C952.493 174.428 948.557 179 940.632 179H940.623ZM934.216 172.251C934.216 175.248 936.734 177.051 941.805 177.051C946.876 177.051 949.494 174.337 949.494 171.632C949.494 169.874 948.494 168.544 944.84 168.544H938.342C937.679 168.544 937.015 168.499 936.443 168.399C935.252 169.164 934.216 170.539 934.216 172.251ZM941.432 158.417C944.231 158.417 945.94 156.277 945.94 152.852C945.94 149.428 944.568 145.056 940.623 145.056C938.297 145.056 936.116 146.723 936.116 150.812C936.116 154.901 937.97 158.417 941.432 158.417Z" fill="#FCF1E3"/>
<path d="M963.59 170.056H954.101V169.109C955.528 169.109 956.328 168.827 956.328 166.304V150.849C956.328 147.47 956.328 146.85 953.856 147.278V146.377L960.736 142.907V147.898C962.49 145.566 965.098 143.043 968.852 143.043C973.55 143.043 975.968 146.277 975.968 150.885V166.286C975.968 168.809 976.777 169.091 978.34 169.091V170.038H968.752V169.091C970.797 169.091 971.597 168.809 971.597 166.286V151.595C971.597 148.216 970.079 146.322 967.043 146.322C964.008 146.322 962.063 148.508 960.736 150.411V166.295C960.736 168.818 961.445 169.1 963.581 169.1V170.047L963.59 170.056Z" fill="#FCF1E3"/>
<path d="M96.2544 66.7493H37.4803V0H0V170.065H37.4803V102.979H96.2544V170.065H133.507V0H96.2544V66.7493Z" fill="#FCF1E3"/>
<path d="M329.47 0H291.99V170.065H329.47V0Z" fill="#FCF1E3"/>
<path d="M383.518 0H346.038V170.065H383.518V0Z" fill="#FCF1E3"/>
<path d="M491.76 48.7073C482.645 37.3229 468.785 31.1753 451.699 31.1753C415.182 31.1753 392.579 57.7603 392.579 99.5093V102.615C392.579 136.049 408.82 172.725 450.817 172.725C468.594 172.725 482.881 165.803 492.178 152.971L494.169 170.066H526.314V34.0624H493.305L491.769 48.6982L491.76 48.7073ZM491.033 104.054C491.033 128.863 481.209 139.063 459.269 139.063C437.803 139.063 430.278 128.499 430.278 104.054V100.903C430.278 75.602 438.203 63.9534 459.515 63.9534C480.663 63.9534 491.033 75.602 491.033 100.903V104.054Z" fill="#FCF1E3"/>
<path d="M617.043 30.9565C599.757 30.9565 585.843 37.5868 576.718 49.9185L575.064 34.0622H542.428V170.075H580.126V99.2997C580.126 83.5436 584.879 64.7547 607.518 64.7547C623.777 64.7547 630.712 73.6255 630.712 94.4271V170.084H668.41V87.3323C668.41 52.0405 649.206 30.9656 617.034 30.9656L617.043 30.9565Z" fill="#FCF1E3"/>
<path d="M213.194 30.9565C169.697 30.9565 144.904 56.5306 144.904 101.249V104.728C144.904 150.475 167.689 173.39 213.194 173.39C257.354 173.39 281.484 149.127 281.484 104.728V101.249C281.484 56.5306 256.691 30.9565 213.194 30.9565ZM243.685 104.373C243.685 129.182 235.133 139.382 213.185 139.382C191.718 139.382 182.93 128.817 182.93 104.373V101.221C182.93 75.9206 192.118 64.272 213.43 64.272C234.579 64.272 243.685 75.9206 243.685 101.221V104.373Z" fill="#FCF1E3"/>
<path d="M774.616 0V47.1407C765.564 36.3938 753.213 31.1752 736.6 31.1752C700.083 31.1752 677.48 57.7602 677.48 99.5092V102.615C677.48 136.049 693.721 172.725 735.718 172.725C753.495 172.725 767.782 165.803 777.079 152.971L779.069 170.065H811.215V0H774.616ZM775.943 104.054C775.943 128.863 766.119 139.063 744.179 139.063C722.713 139.063 715.188 128.499 715.188 104.054V100.903C715.188 75.6019 723.113 63.9533 744.425 63.9533C765.573 63.9533 775.943 75.6019 775.943 100.903V104.054Z" fill="#FCF1E3"/>
</g>
<defs>
<clipPath id="clip0_197_838">
<rect width="1023" height="179" fill="white"/>
</clipPath>
</defs>
</svg>
